<svg aria-hidden="true" style="position: absolute; width: 0; height: 0; overflow: hidden;" version="1.1" xmlns="http://www.w3.org/2000/svg" xmlns:xlink="http://www.w3.org/1999/xlink">
  <defs>
    <symbol id="file" width="18" height="23" viewBox="0 0 18 23" fill="none">
      <g clip-path="url(#clip0_1_166)">
      <path d="M12.8027 5.39063H17.1247L12.1289 0.394821V4.7168C12.1289 5.08857 12.431 5.39063 12.8027 5.39063Z" fill="white"/>
      <path d="M2.02148 23H15.498C16.6127 23 17.5195 22.0932 17.5195 20.9785V6.73828H12.8027C11.688 6.73828 10.7812 5.83149 10.7812 4.7168V0H2.02148C0.906793 0 0 0.906793 0 2.02148V20.9785C0 22.0932 0.906793 23 2.02148 23ZM6.06445 10.8262H12.8027C13.1752 10.8262 13.4766 11.1276 13.4766 11.5C13.4766 11.8724 13.1752 12.1738 12.8027 12.1738H6.06445C5.69201 12.1738 5.39062 11.8724 5.39062 11.5C5.39062 11.1276 5.69201 10.8262 6.06445 10.8262ZM6.06445 13.5215H12.8027C13.1752 13.5215 13.4766 13.8229 13.4766 14.1953C13.4766 14.5678 13.1752 14.8691 12.8027 14.8691H6.06445C5.69201 14.8691 5.39062 14.5678 5.39062 14.1953C5.39062 13.8229 5.69201 13.5215 6.06445 13.5215ZM6.06445 16.2168H12.8027C13.1752 16.2168 13.4766 16.5182 13.4766 16.8906C13.4766 17.2631 13.1752 17.5645 12.8027 17.5645H6.06445C5.69201 17.5645 5.39062 17.2631 5.39062 16.8906C5.39062 16.5182 5.69201 16.2168 6.06445 16.2168ZM3.36914 10.8262C3.74127 10.8262 4.04297 11.1279 4.04297 11.5C4.04297 11.8721 3.74127 12.1738 3.36914 12.1738C2.99701 12.1738 2.69531 11.8721 2.69531 11.5C2.69531 11.1279 2.99701 10.8262 3.36914 10.8262ZM3.36914 13.5215C3.74127 13.5215 4.04297 13.8232 4.04297 14.1953C4.04297 14.5674 3.74127 14.8691 3.36914 14.8691C2.99701 14.8691 2.69531 14.5674 2.69531 14.1953C2.69531 13.8232 2.99701 13.5215 3.36914 13.5215ZM3.36914 16.2168C3.74127 16.2168 4.04297 16.5185 4.04297 16.8906C4.04297 17.2628 3.74127 17.5645 3.36914 17.5645C2.99701 17.5645 2.69531 17.2628 2.69531 16.8906C2.69531 16.5185 2.99701 16.2168 3.36914 16.2168Z" fill="white"/>
      </g>
    </symbol>

    <symbol id="tools" width="23" height="23" viewBox="0 0 23 23" fill="none">
      <g clip-path="url(#clip0_1_159)">
      <path d="M21.6271 14.9541C20.4439 13.7701 18.8023 13.2685 16.694 13.8335L9.17592 6.30787L9.27529 5.93215C9.70829 4.3075 9.24043 2.56117 8.05468 1.37541C6.84735 0.167144 5.13098 -0.27619 3.50773 0.169704C3.39399 0.200945 3.29044 0.261495 3.20744 0.345301C3.12444 0.429107 3.06489 0.533233 3.03474 0.647269C3.00471 0.76129 3.00512 0.881196 3.03593 0.995009C3.06675 1.10882 3.12689 1.21256 3.21034 1.29585L5.02056 3.10607C5.54979 3.63659 5.54462 4.48625 5.02186 5.0104C4.50324 5.53041 3.63149 5.5296 3.11493 5.0117L1.30435 3.20099C1.22093 3.11751 1.11704 3.05742 1.00308 3.02675C0.889125 2.99607 0.769107 2.99588 0.655054 3.0262C0.541037 3.05651 0.436986 3.11626 0.353322 3.19944C0.269658 3.28262 0.209318 3.38633 0.178343 3.50017C-0.261038 5.10559 0.1712 6.83261 1.38432 8.04572C2.56693 9.22919 4.20653 9.73258 6.31611 9.16634L13.8347 16.692C13.2737 18.7997 13.7576 20.4255 14.9567 21.6245C16.1655 22.8342 17.8827 23.2743 19.5024 22.8299C19.6161 22.7987 19.7197 22.7381 19.8028 22.6543C19.8858 22.5705 19.9453 22.4664 19.9755 22.3523C20.0056 22.2383 20.0052 22.1183 19.9743 22.0045C19.9435 21.8907 19.8834 21.7869 19.7999 21.7036L17.9901 19.8938C17.4609 19.3633 17.466 18.5136 17.9888 17.9895C18.5139 17.4671 19.3837 17.4754 19.8957 17.9888L21.7064 19.799C21.7899 19.8825 21.8938 19.9425 22.0077 19.9732C22.1217 20.0038 22.2416 20.004 22.3557 19.9737C22.4697 19.9434 22.5737 19.8836 22.6573 19.8005C22.741 19.7173 22.8013 19.6137 22.8324 19.4999C23.2717 17.8947 22.8396 16.1672 21.6271 14.9541Z" fill="white"/>
      <path d="M7.21188 11.9755L0.788413 18.3997C-0.262804 19.4509 -0.262804 21.1604 0.788413 22.2116C1.83963 23.2627 3.54909 23.2628 4.60026 22.2116L11.0236 15.7875L7.21188 11.9755ZM3.96722 20.1204C3.70398 20.3837 3.27767 20.3837 3.01443 20.1204C2.75123 19.8572 2.75123 19.4308 3.01443 19.1676L7.10142 15.0799C7.36462 14.8167 7.79106 14.8167 8.05421 15.0799C8.31736 15.3431 8.31741 15.7695 8.05421 16.0327L3.96722 20.1204ZM22.8018 1.35902L21.6402 0.197388C21.5339 0.0911347 21.3952 0.0234391 21.2461 0.00506051C21.097 -0.0133181 20.946 0.0186749 20.8171 0.0959548L17.2437 2.23976C16.8677 2.46531 16.8039 2.98403 17.1138 3.29403L17.3983 3.57839L12.8621 8.09605L14.7683 10.0023L19.3045 5.48465L19.7052 5.8854C20.0152 6.19531 20.534 6.13152 20.7595 5.75553L22.9033 2.18213C22.9805 2.05325 23.0125 1.90225 22.9941 1.75312C22.9757 1.60399 22.908 1.46528 22.8018 1.35902Z" fill="white"/>
      </g>
    </symbol>

    <symbol id="folders" width="23" height="21" viewBox="0 0 23 21" fill="none">
      <g clip-path="url(#clip0_1_155)">
      <path d="M19.7143 7.56C19.7143 7.11444 19.5412 6.68712 19.2331 6.37206C18.925 6.057 18.5071 5.88 18.0714 5.88H9.03571C8.81788 5.87995 8.60898 5.79142 8.45496 5.63388L6.23136 3.36H1.64286C1.20714 3.36 0.789277 3.537 0.481182 3.85206C0.173086 4.16712 0 4.59444 0 5.04V19.32C0 19.7656 0.173086 20.1929 0.481182 20.5079C0.789277 20.823 1.20714 21 1.64286 21H18.0714C18.5071 21 18.925 20.823 19.2331 20.5079C19.5412 20.1929 19.7143 19.7656 19.7143 19.32V7.56ZM7.39286 17.64H4.10714C3.88929 17.64 3.68035 17.5515 3.52631 17.394C3.37226 17.2364 3.28571 17.0228 3.28571 16.8C3.28571 16.5772 3.37226 16.3636 3.52631 16.206C3.68035 16.0485 3.88929 15.96 4.10714 15.96H7.39286C7.61071 15.96 7.81965 16.0485 7.97369 16.206C8.12774 16.3636 8.21429 16.5772 8.21429 16.8C8.21429 17.0228 8.12774 17.2364 7.97369 17.394C7.81965 17.5515 7.61071 17.64 7.39286 17.64ZM23 4.2V15.96C23 16.4056 22.8269 16.8329 22.5188 17.1479C22.2107 17.463 21.7929 17.64 21.3571 17.64V7.56C21.3571 6.66887 21.011 5.81424 20.3948 5.18412C19.7786 4.554 18.9429 4.2 18.0714 4.2H9.37579L7.15218 1.92612C6.99817 1.76858 6.78927 1.68005 6.57143 1.68H3.28571C3.28571 1.23444 3.4588 0.807122 3.7669 0.492061C4.07499 0.176999 4.49286 0 4.92857 0H9.58361C9.80352 0.000373656 10.0211 0.045669 10.2237 0.133227C10.4263 0.220786 10.6097 0.348842 10.7632 0.50988L12.6689 2.52H21.3571C21.7929 2.52 22.2107 2.697 22.5188 3.01206C22.8269 3.32712 23 3.75444 23 4.2Z" fill="white"/>
      </g>
    </symbol>

    <symbol id="masters" width="23" height="23" viewBox="0 0 23 23" fill="none">
      <g clip-path="url(#clip0_1_150)">
      <path d="M18.6577 6.59196C18.6576 6.52381 18.6491 6.45593 18.6323 6.38989C18.3692 5.36173 17.8879 4.40283 17.2216 3.57883C16.5552 2.75482 15.7195 2.08518 14.7716 1.61575V3.28571C14.7716 3.50357 14.6854 3.7125 14.532 3.86655C14.3787 4.0206 14.1707 4.10714 13.9538 4.10714C13.7369 4.10714 13.5289 4.0206 13.3755 3.86655C13.2222 3.7125 13.136 3.50357 13.136 3.28571V0.821429C13.136 0.603572 13.0499 0.394639 12.8965 0.240591C12.7431 0.0865431 12.5351 0 12.3182 0H10.6827C10.4658 0 10.2578 0.0865431 10.1044 0.240591C9.95106 0.394639 9.8649 0.603572 9.8649 0.821429V3.28571C9.8649 3.50357 9.77875 3.7125 9.62538 3.86655C9.47202 4.0206 9.26401 4.10714 9.04713 4.10714C8.83024 4.10714 8.62223 4.0206 8.46887 3.86655C8.31551 3.7125 8.22935 3.50357 8.22935 3.28571V1.61575C7.28133 2.08527 6.44553 2.75504 5.77918 3.57919C5.11282 4.40334 4.63165 5.3624 4.36862 6.39071C4.35169 6.45664 4.34507 6.52481 4.34899 6.59279C4.04566 6.6431 3.77228 6.8062 3.58318 7.04969C3.39408 7.29318 3.30311 7.59923 3.32835 7.907C3.3536 8.21477 3.4932 8.50173 3.71942 8.71085C3.94564 8.91997 4.24191 9.03594 4.54935 9.03571H18.4516C18.7604 9.03876 19.059 8.92443 19.2875 8.71563C19.5159 8.50684 19.6574 8.21902 19.6834 7.90988C19.7095 7.60074 19.6183 7.29313 19.428 7.04871C19.2378 6.8043 18.9626 6.64114 18.6577 6.59196ZM17.2249 10.6786H5.77601V11.5C5.77601 13.0689 6.4057 14.49 7.4222 15.5283C7.41975 15.5554 7.41157 15.58 7.41157 15.6071V16.9904L11.48 18.8058L15.5893 16.7432V15.6071C15.5893 15.58 15.5812 15.5554 15.5787 15.5283C16.6335 14.4552 17.2249 13.008 17.2249 11.5V10.6786Z" fill="white"/>
      <path d="M6.59334 23H16.4067V18.1684L11.8656 20.4495C11.7576 20.5036 11.6391 20.533 11.5185 20.5357C11.3979 20.5384 11.2782 20.5143 11.168 20.4651L6.59334 18.4222V23ZM4.95778 18.1634C3.00651 18.761 1.32134 20.0186 0.188504 21.7227C0.106335 21.8464 0.0591411 21.9902 0.0519581 22.1387C0.0447751 22.2873 0.077872 22.435 0.147718 22.5661C0.217564 22.6972 0.321539 22.8068 0.44855 22.8832C0.575561 22.9597 0.720842 23 0.868895 23H4.95778V18.1634ZM22.8115 21.7227C21.6787 20.0186 19.9935 18.761 18.0422 18.1634V23H22.1311C22.2792 23 22.4245 22.9597 22.5515 22.8832C22.6785 22.8068 22.7824 22.6972 22.8523 22.5661C22.9221 22.435 22.9552 22.2873 22.9481 22.1387C22.9409 21.9902 22.8937 21.8464 22.8115 21.7227Z" fill="white"/>
      </g>
    </symbol>

    <symbol id="phone" width="23" height="23" viewBox="0 0 23 23" fill="none">
      <g clip-path="url(#clip0_1_146)">
      <path d="M21.6674 15.3957C22.5043 15.6049 23.0337 16.374 22.9466 17.2516L22.6841 20.0106C22.5436 22.3474 20.9425 23.2456 18.9141 22.8855C8.89673 21.6604 1.33741 14.1119 0.109138 4.08063C-0.465184 -0.0443523 2.86129 0.376495 5.74304 0.0483113C6.62624 -0.0445936 7.38806 0.488946 7.59727 1.32557L8.32 4.19911C8.52391 5.13564 9.06614 6.26208 8.34582 7.17762L7.12816 9.24976C6.88106 9.60111 6.83618 10.0058 6.99472 10.3386C8.19838 12.8588 10.1301 14.8125 12.6047 16.0248C12.9319 16.1889 13.3436 16.1472 13.6629 15.9186L15.846 14.6269C16.7362 13.9319 17.8779 14.4754 18.8026 14.6744L21.6674 15.3957Z" fill="white"/>
      </g>
    </symbol>

    <symbol id="exit" width="23" height="21" viewBox="0 0 23 21" fill="none">
      <g clip-path="url(#clip0_1_142)">
      <path d="M22.6087 11.2372L15.56 17.5027C15.2229 17.8002 14.6926 17.5622 14.6926 17.1112V13.3885H6.94492C6.36992 13.3885 5.90397 12.9226 5.90397 12.3476V8.57042C5.90397 7.99542 6.36992 7.52947 6.94492 7.52947H14.6926V3.80684C14.6926 3.35576 15.2229 3.11783 15.56 3.4202L22.6087 9.68572C23.0747 10.0971 23.0747 10.8258 22.6087 11.2372ZM1.08587 20.8784H7.79255C8.36755 20.8784 8.8335 20.4124 8.8335 19.8374V18.0133C8.8335 17.4383 8.36755 16.9724 7.79255 16.9724H3.95096V3.94563H7.79255C8.36755 3.94563 8.8335 3.47968 8.8335 2.90468V1.0855C8.8335 0.510504 8.36755 0.0445557 7.79255 0.0445557H1.08587C0.51087 0.0445557 0.0449219 0.510504 0.0449219 1.0855V19.8374C0.0449219 20.4124 0.51087 20.8784 1.08587 20.8784Z" fill="white"/>
      </g>
    </symbol>

    <symbol id="arrow-bottom" width="14" height="8" viewBox="0 0 14 8" fill="none">
      <g clip-path="url(#clip0_1_128)">
      <path d="M13.726 1.28521L7.73631 7.64949C7.63888 7.75327 7.52121 7.83598 7.39057 7.89252C7.25993 7.94907 7.11909 7.97824 6.97675 7.97824C6.8344 7.97824 6.69356 7.94907 6.56292 7.89252C6.43228 7.83598 6.31461 7.75327 6.21718 7.64949L0.227473 1.28521C-0.222511 0.806948 0.116341 0.0220795 0.77321 0.0220795H13.1803C13.8371 0.0220795 14.176 0.806948 13.726 1.28521Z" fill="#777777"/>
      </g>
    </symbol>

    <symbol id="search" width="20" height="20" viewBox="0 0 20 20" fill="none">
      <g>
      <path d="M19.4883 16.956L14.8991 12.3665C15.7061 11.0838 16.1333 9.59879 16.1314 8.08335C16.1314 3.62862 12.5201 0.0178146 8.06554 0.0178146C3.61097 0.0178146 0 3.62862 0 8.08335C0 12.5381 3.6108 16.1487 8.06554 16.1487C9.71313 16.1508 11.3215 15.6459 12.6724 14.7027L17.2069 19.2376C17.3566 19.3874 17.5345 19.5062 17.7302 19.5871C17.926 19.6681 18.1358 19.7095 18.3476 19.7091C18.5595 19.7095 18.7694 19.668 18.9652 19.5871C19.161 19.5062 19.339 19.3874 19.4888 19.2376C19.6386 19.0877 19.7574 18.9099 19.8384 18.7141C19.9195 18.5184 19.9611 18.3086 19.9611 18.0967C19.9611 17.8848 19.9193 17.675 19.8382 17.4793C19.757 17.2836 19.6381 17.1058 19.4883 16.956ZM8.06554 13.5356C5.05466 13.5356 2.61362 11.0947 2.61362 8.08369C2.61362 5.07264 5.05466 2.6316 8.06554 2.6316C11.0766 2.6316 13.5175 5.07264 13.5175 8.08369C13.5175 11.0947 11.0766 13.5356 8.06554 13.5356Z" fill="#156F4B"/>
      </g>
    </symbol>

    <symbol id="plus" width="20" height="20" viewBox="0 0 20 20" fill="none">
      <rect y="8" width="20" height="4" rx="2" fill="white"/>
      <rect x="12" width="20" height="4" rx="2" transform="rotate(90 12 0)" fill="white"/>
    </symbol>

    <symbol id="eye" width="20" height="13" viewBox="0 0 20 13" fill="none">
      <g clip-path="url(#clip0_1_73)">
      <path d="M9.99318 9.53846C11.6925 9.53846 13.0701 8.16087 13.0701 6.46154C13.0701 4.7622 11.6925 3.38461 9.99318 3.38461C8.29385 3.38461 6.91626 4.7622 6.91626 6.46154C6.91626 8.16087 8.29385 9.53846 9.99318 9.53846Z" fill="#156F4B"/>
      <path d="M19.6797 5.60923C17.3146 2.75115 13.7344 0 9.99317 0C6.25125 0 2.67021 2.75308 0.306635 5.60923C-0.102212 6.10308 -0.102212 6.82 0.306635 7.31385C0.900865 8.03192 2.14663 9.41808 3.81048 10.6292C8.00083 13.6797 11.9763 13.6864 16.1759 10.6292C17.8397 9.41808 19.0855 8.03192 19.6797 7.31385C20.0874 6.82096 20.0895 6.10469 19.6797 5.60923ZM9.99317 2.15385C12.3686 2.15385 14.3009 4.08615 14.3009 6.46154C14.3009 8.83692 12.3686 10.7692 9.99317 10.7692C7.61779 10.7692 5.68548 8.83692 5.68548 6.46154C5.68548 4.08615 7.61779 2.15385 9.99317 2.15385Z" fill="#156F4B"/>
      </g>
    </symbol>

    <symbol id="edit" width="20" height="20" viewBox="0 0 20 20" fill="none">
      <g clip-path="url(#clip0_1_71)">
      <path d="M19.0998 0.892805C18.8205 0.609995 18.4879 0.385444 18.1212 0.232182C17.7544 0.0789206 17.3609 0 16.9634 0C16.5659 0 16.1724 0.0789206 15.8056 0.232182C15.4389 0.385444 15.1063 0.609995 14.827 0.892805L12.9058 2.84359L17.1485 7.08528L19.0698 5.16451C19.3546 4.88733 19.5816 4.55635 19.7375 4.19078C19.8933 3.82521 19.975 3.43233 19.9778 3.03493C19.9806 2.63754 19.9045 2.24355 19.7537 1.87582C19.603 1.5081 19.3807 1.17396 19.0998 0.892805ZM11.4848 4.26415L3.08938 12.6575C3.01461 12.7353 2.95066 12.8228 2.89926 12.9176L0.117453 18.5299C0.0367499 18.6813 -0.00361019 18.851 0.000253492 19.0226C0.00411717 19.1942 0.0520747 19.3619 0.139514 19.5097C0.226954 19.6574 0.350934 19.7801 0.499534 19.866C0.648133 19.952 0.816353 19.9983 0.988018 20.0004C1.14049 20.0011 1.29108 19.9669 1.4283 19.9004L7.04195 17.1193C7.13682 17.0679 7.22434 17.004 7.30212 16.9292L15.6976 8.53586L11.4848 4.26415ZM18.9997 20.0004H9.99387C9.72848 20.0004 9.47396 19.895 9.28631 19.7074C9.09865 19.5198 8.99322 19.2654 8.99322 19C8.99322 18.7347 9.09865 18.4803 9.28631 18.2927C9.47396 18.105 9.72848 17.9996 9.99387 17.9996H18.9997C19.2651 17.9996 19.5196 18.105 19.7073 18.2927C19.895 18.4803 20.0004 18.7347 20.0004 19C20.0004 19.2654 19.895 19.5198 19.7073 19.7074C19.5196 19.895 19.2651 20.0004 18.9997 20.0004Z" fill="#156F4B"/>
      </g>
    </symbol>

    <symbol id="trash" width="18" height="20" viewBox="0 0 18 20" fill="none">
      <g clip-path="url(#clip0_1_69)">
      <path d="M1.21895 5.85938L2.2568 18.3881C2.33117 19.2916 3.10078 20 4.00773 20H13.5704C14.4774 20 15.247 19.2916 15.3214 18.3881L16.3592 5.85938H1.21895ZM5.85883 17.6562C5.55211 17.6562 5.29406 17.4177 5.27461 17.1069L4.68867 7.65379C4.66863 7.33051 4.9141 7.05242 5.23684 7.03238C5.57156 7.00891 5.83766 7.25727 5.85824 7.58055L6.44418 17.0337C6.46492 17.3684 6.20004 17.6562 5.85883 17.6562ZM9.375 17.0703C9.375 17.3942 9.11293 17.6562 8.78906 17.6562C8.4652 17.6562 8.20312 17.3942 8.20312 17.0703V7.61719C8.20312 7.29332 8.4652 7.03125 8.78906 7.03125C9.11293 7.03125 9.375 7.29332 9.375 7.61719V17.0703ZM12.8895 7.65383L12.3035 17.107C12.2843 17.4145 12.0279 17.6709 11.6821 17.6551C11.3594 17.6351 11.1139 17.357 11.1339 17.0337L11.7199 7.58059C11.7399 7.2573 12.0232 7.02211 12.3413 7.03242C12.664 7.05246 12.9095 7.33055 12.8895 7.65383ZM16.4062 2.34375H12.8906V1.75781C12.8906 0.788516 12.1021 0 11.1328 0H6.44531C5.47602 0 4.6875 0.788516 4.6875 1.75781V2.34375H1.17188C0.524648 2.34375 0 2.8684 0 3.51562C0 4.16277 0.524648 4.6875 1.17188 4.6875H16.4062C17.0535 4.6875 17.5781 4.16277 17.5781 3.51562C17.5781 2.8684 17.0535 2.34375 16.4062 2.34375ZM11.7188 2.34375H5.85938V1.75781C5.85938 1.43453 6.12203 1.17188 6.44531 1.17188H11.1328C11.4561 1.17188 11.7188 1.43453 11.7188 1.75781V2.34375Z" fill="#156F4B"/>
      </g>
    </symbol>

    <symbol id="close" width="12" height="12" viewBox="0 0 12 12" fill="none">
      <g clip-path="url(#clip0_1_66)">
      <path d="M11.7628 1.45041C11.9167 1.2913 12.0019 1.0782 12 0.857012C11.998 0.63582 11.9092 0.424233 11.7525 0.267821C11.5958 0.111408 11.3838 0.0226867 11.1623 0.0207646C10.9407 0.0188425 10.7272 0.103874 10.5679 0.257544L6.01039 4.80713L1.45292 0.257544C1.37496 0.176971 1.28172 0.112703 1.17861 0.06849C1.07551 0.0242773 0.964622 0.00100522 0.852414 3.18522e-05C0.740206 -0.000941519 0.628927 0.0204031 0.525071 0.0628205C0.421215 0.105238 0.326861 0.167879 0.247515 0.247087C0.168169 0.326296 0.10542 0.420487 0.0629293 0.524164C0.0204384 0.62784 -0.000943149 0.738927 3.19074e-05 0.850941C0.00100696 0.962954 0.0243193 1.07365 0.0686086 1.17658C0.112898 1.2795 0.177277 1.37259 0.25799 1.45041L4.81546 6L0.25799 10.5496C0.177277 10.6274 0.112898 10.7205 0.0686086 10.8234C0.0243193 10.9263 0.00100696 11.037 3.19074e-05 11.1491C-0.000943149 11.2611 0.0204384 11.3722 0.0629293 11.4758C0.10542 11.5795 0.168169 11.6737 0.247515 11.7529C0.326861 11.8321 0.421215 11.8948 0.525071 11.9372C0.628927 11.9796 0.740206 12.0009 0.852414 12C0.964622 11.999 1.07551 11.9757 1.17861 11.9315C1.28172 11.8873 1.37496 11.823 1.45292 11.7424L6.01039 7.19286L10.5679 11.7424C10.7272 11.8961 10.9407 11.9812 11.1623 11.9792C11.3838 11.9773 11.5958 11.8886 11.7525 11.7322C11.9092 11.5758 11.998 11.3642 12 11.143C12.0019 10.9218 11.9167 10.7087 11.7628 10.5496L7.20531 6L11.7628 1.45041Z" fill="#777777"/>
      </g>
    </symbol>

    <symbol id="pdf-file" width="57" height="60" viewBox="0 0 57 60" fill="none">
      <g clip-path="url(#clip0_2_179)">
      <path d="M53.2287 2.8145V57.1856C53.2287 57.9313 52.9325 58.6465 52.4052 59.1739C51.8778 59.7012 51.1626 59.9974 50.4169 59.9974H5.84966C5.10392 59.9974 4.38872 59.7012 3.8614 59.1739C3.33409 58.6465 3.03784 57.9313 3.03784 57.1856V11.2874H11.5201C12.2659 11.2874 12.9811 10.9912 13.5084 10.4639C14.0357 9.93655 14.332 9.22136 14.332 8.47562V0.00268555H50.4169C51.1626 0.00268555 51.8778 0.298929 52.4052 0.826247C52.9325 1.35356 53.2287 2.06876 53.2287 2.8145Z" fill="#DEE4EE"/>
      <path d="M3.03784 11.2874H11.5201C12.2659 11.2874 12.9811 10.9912 13.5084 10.4639C14.0357 9.93655 14.332 9.22136 14.332 8.47562V0.00268555L3.03784 11.2874Z" fill="#D2DBEA"/>
      <path d="M56.2519 34.8626V47.9094C56.2519 48.6552 55.9557 49.3703 55.4283 49.8977C54.901 50.425 54.1858 50.7212 53.4401 50.7212H2.82744C2.0817 50.7212 1.3665 50.425 0.839186 49.8977C0.311869 49.3703 0.015625 48.6552 0.015625 47.9094V34.8626C0.015625 34.1169 0.311869 33.4017 0.839186 32.8743C1.3665 32.347 2.0817 32.0508 2.82744 32.0508H53.4401C54.1858 32.0508 54.901 32.347 55.4283 32.8743C55.9557 33.4017 56.2519 34.1169 56.2519 34.8626Z" fill="#F14F4A"/>
      <path d="M45.5026 19.2186C45.5026 19.8916 44.9665 20.4277 44.2935 20.4277H11.9708C11.6501 20.4277 11.3426 20.3003 11.1159 20.0735C10.8891 19.8468 10.7617 19.5393 10.7617 19.2186C10.7617 18.8979 10.8891 18.5904 11.1159 18.3637C11.3426 18.1369 11.6501 18.0095 11.9708 18.0095H44.2935C44.9665 18.0095 45.5026 18.5456 45.5026 19.2186ZM45.5026 25.414C45.5026 26.0869 44.9665 26.623 44.2935 26.623H11.9708C11.6501 26.623 11.3426 26.4957 11.1159 26.2689C10.8891 26.0422 10.7617 25.7346 10.7617 25.414C10.7617 25.0933 10.8891 24.7858 11.1159 24.559C11.3426 24.3323 11.6501 24.2049 11.9708 24.2049H44.2935C44.9665 24.2049 45.5026 24.7419 45.5026 25.414Z" fill="#F4F8FF"/>
      <path d="M16.2116 45.8465C16.1554 45.7919 16.1112 45.7262 16.0818 45.6536C16.0524 45.581 16.0385 45.503 16.0411 45.4247V37.3651C16.0411 37.1989 16.0979 37.0564 16.2116 36.9377C16.2655 36.8801 16.3309 36.8345 16.4036 36.8038C16.4763 36.7731 16.5546 36.7581 16.6334 36.7596H19.6355C20.4697 36.7596 21.1498 36.9002 21.6759 37.1814C22.2021 37.4626 22.5801 37.8225 22.81 38.2611C23.0375 38.6998 23.1515 39.1737 23.1521 39.683C23.1551 40.1781 23.0374 40.6664 22.8091 41.1058C22.581 41.5444 22.2033 41.9043 21.6759 42.1855C21.1492 42.4667 20.469 42.6073 19.6355 42.6073H17.2389V45.4247C17.2404 45.5036 17.2254 45.5819 17.1947 45.6545C17.164 45.7272 17.1184 45.7926 17.0608 45.8465C16.9421 45.9602 16.7993 46.0171 16.6325 46.0171C16.3822 46.0171 16.3251 45.9608 16.2116 45.8465ZM19.5174 41.4741C20.4128 41.4741 21.0423 41.3029 21.406 40.9605C21.7697 40.6181 21.9518 40.1922 21.9524 39.683C21.9524 38.9191 21.7706 38.7476 21.406 38.4055C21.0423 38.0631 20.4128 37.8919 19.5174 37.8919H17.2389V41.4741H19.5174Z" fill="white"/>
      <path d="M16.6311 46.2522C16.5223 46.2532 16.4144 46.2323 16.3138 46.191C16.2132 46.1496 16.1219 46.0885 16.0453 46.0113C15.9673 45.9352 15.9057 45.8438 15.8645 45.7429C15.8232 45.6419 15.8031 45.5336 15.8054 45.4246V37.365C15.8054 37.1357 15.8844 36.9389 16.0425 36.7745C16.1181 36.6946 16.2094 36.6311 16.3107 36.5882C16.412 36.5453 16.5211 36.5239 16.6311 36.5252H19.6341C20.503 36.5252 21.2265 36.6761 21.7851 36.9742C22.3513 37.276 22.7646 37.6724 23.0158 38.1523C23.2595 38.6238 23.3851 39.1383 23.3851 39.6829C23.3851 40.2274 23.2604 40.742 23.0158 41.2134C22.7655 41.6933 22.3513 42.0898 21.7851 42.3925C21.2275 42.6896 20.5039 42.8405 19.6341 42.8405H17.4718V45.4246C17.4729 45.5348 17.4513 45.6441 17.4084 45.7457C17.3655 45.8472 17.3022 45.9389 17.2225 46.0151C17.0646 46.1687 16.8523 46.2536 16.632 46.2513L16.6311 46.2522ZM16.6311 36.9938C16.5841 36.9925 16.5373 37.0012 16.494 37.0195C16.4506 37.0377 16.4117 37.0651 16.3799 37.0998C16.3453 37.1346 16.3182 37.176 16.3 37.2216C16.2818 37.2672 16.2729 37.3159 16.274 37.365V45.4246C16.274 45.5296 16.3059 45.6111 16.3761 45.6795C16.5167 45.8201 16.7482 45.8211 16.8982 45.6767C16.9329 45.6446 16.9603 45.6054 16.9784 45.5617C16.9965 45.518 17.005 45.4709 17.0032 45.4237V42.3719H19.6341C20.4261 42.3719 21.0756 42.2397 21.5649 41.9782C22.0466 41.7214 22.3944 41.3915 22.6006 40.9969C22.8096 40.5939 22.9164 40.1515 22.9164 39.6829C22.9164 39.2142 22.8096 38.7728 22.6006 38.3688C22.3944 37.9752 22.0457 37.6443 21.5649 37.3875C21.0747 37.126 20.4252 36.9938 19.6341 36.9938H16.6311ZM19.516 41.7083H17.0032V37.6574H19.5151C20.4805 37.6574 21.1525 37.8458 21.5649 38.2348C21.9773 38.6219 22.1854 39.1093 22.1854 39.6829C22.1854 40.2565 21.9773 40.7439 21.5649 41.131C21.1525 41.5199 20.4814 41.7083 19.516 41.7083ZM17.4718 41.2397H19.5151C20.3446 41.2397 20.9266 41.0878 21.2443 40.7898C21.563 40.4899 21.7167 40.129 21.7167 39.6829C21.7167 39.2367 21.5621 38.8749 21.2443 38.5769C20.9266 38.277 20.3446 38.127 19.516 38.127H17.4718V41.2397ZM25.06 45.7798C25.0036 45.7254 24.9592 45.6597 24.9296 45.5871C24.9001 45.5144 24.8861 45.4364 24.8884 45.358V37.365C24.8884 37.1988 24.9456 37.0563 25.06 36.9376C25.1137 36.8801 25.179 36.8346 25.2515 36.8039C25.324 36.7732 25.4021 36.7581 25.4808 36.7595H28.1277C29.128 36.7595 29.9775 36.9813 30.6761 37.425C31.3493 37.8413 31.894 38.4359 32.2498 39.143C32.6003 39.8453 32.7756 40.5827 32.7756 41.355C32.7756 42.5134 32.6003 42.8649 32.2498 43.5679C31.8938 44.2751 31.3487 44.8697 30.6752 45.2859C29.9778 45.7295 29.1287 45.9513 28.1277 45.9513H25.4817C25.4034 45.9537 25.3254 45.9397 25.2527 45.9102C25.1801 45.8806 25.1144 45.8362 25.06 45.7798ZM27.9833 44.8322C28.7019 44.8322 29.3336 44.6851 29.8785 44.3908C30.4081 44.1114 30.8468 43.6863 31.1429 43.1658C31.4415 42.644 31.5909 42.0407 31.5909 41.3559C31.5909 40.3287 31.4409 40.0671 31.1429 39.5451C30.8464 39.0249 30.4078 38.5999 29.8785 38.3201C29.3349 38.0264 28.7031 37.8796 27.9833 37.8796H26.0863V44.8322H27.9833Z" fill="white"/>
      <path d="M28.1283 46.1857H25.4824C25.3735 46.1869 25.2655 46.1663 25.1647 46.125C25.064 46.0838 24.9725 46.0229 24.8956 45.9457C24.8176 45.8696 24.7561 45.7782 24.7148 45.6773C24.6735 45.5763 24.6534 45.468 24.6557 45.359V37.365C24.6557 37.1357 24.7347 36.9389 24.8928 36.7745C24.9685 36.6945 25.06 36.631 25.1615 36.5881C25.2629 36.5451 25.3722 36.5238 25.4824 36.5252H28.1292C29.1705 36.5252 30.0694 36.7614 30.8033 37.2272C31.5115 37.6671 32.0849 38.2936 32.4604 39.038C32.8222 39.757 33.0106 40.5506 33.0106 41.3554C33.0106 42.1603 32.8222 42.9539 32.4604 43.6728C32.0849 44.4173 31.5115 45.0438 30.8033 45.4837C30.0694 45.9495 29.1696 46.1857 28.1283 46.1857ZM25.4814 36.9939C25.4343 36.9923 25.3873 37.001 25.3438 37.0193C25.3003 37.0376 25.2612 37.065 25.2293 37.0998C25.1947 37.1346 25.1676 37.176 25.1494 37.2216C25.1312 37.2672 25.1223 37.316 25.1234 37.365V45.359C25.1234 45.463 25.1553 45.5446 25.2265 45.6139C25.2594 45.6479 25.2992 45.6755 25.3431 45.6931C25.387 45.7107 25.4341 45.7188 25.4814 45.717H28.1283C29.0796 45.717 29.8941 45.5052 30.5511 45.0891C31.1875 44.6941 31.7028 44.1315 32.0405 43.4629C32.3703 42.8094 32.5422 42.0875 32.5422 41.3554C32.5422 40.6234 32.3703 39.9015 32.0405 39.248C31.7027 38.5798 31.1874 38.0175 30.5511 37.6228C29.8941 37.2057 29.0796 36.9948 28.1283 36.9948H25.4824L25.4814 36.9939ZM27.9839 45.0666H25.8526V37.6443H27.9839C28.7375 37.6443 29.4133 37.8027 29.9906 38.113C30.5717 38.4279 31.0282 38.8703 31.3469 39.4279C31.6655 39.9856 31.8258 40.6342 31.8258 41.3559C31.8258 42.0776 31.6655 42.7262 31.3469 43.282C31.0292 43.8405 30.5587 44.2967 29.9906 44.597C29.4142 44.9082 28.7384 45.0666 27.9839 45.0666ZM26.3212 44.5979H27.9839C28.6597 44.5979 29.2605 44.4583 29.7676 44.1855C30.2699 43.9137 30.6645 43.5313 30.9401 43.0496C31.2166 42.565 31.3572 41.9951 31.3572 41.3559C31.3572 40.7167 31.2166 40.1468 30.9401 39.6613C30.6647 39.1798 30.2585 38.7863 29.7685 38.5263C29.2596 38.2526 28.6597 38.1139 27.9839 38.1139H26.3212V44.5979ZM34.9497 45.8464C34.8935 45.7918 34.8493 45.7261 34.8199 45.6535C34.7905 45.5809 34.7766 45.5029 34.7792 45.4246V37.365C34.7792 37.1988 34.836 37.0563 34.9497 36.9376C35.0036 36.88 35.069 36.8344 35.1417 36.8037C35.2143 36.773 35.2927 36.758 35.3715 36.7595H40.4937C40.6512 36.7595 40.7849 36.8145 40.8949 36.9245C41.0048 37.0345 41.0598 37.1682 41.0598 37.3256C41.0598 37.5618 41.0045 37.6162 40.8949 37.7212C40.7852 37.8261 40.6512 37.8786 40.4937 37.8786H35.977V40.7889H40.0326C40.1913 40.7895 40.3253 40.8445 40.4347 40.9538C40.5446 41.0632 40.5996 41.1972 40.5996 41.3559C40.5996 41.5134 40.5446 41.6449 40.4347 41.7505C40.2697 41.9089 40.191 41.908 40.0326 41.908H35.977V45.4246C35.9785 45.5035 35.9635 45.5818 35.9328 45.6544C35.9021 45.7271 35.8565 45.7925 35.7989 45.8464C35.6802 45.9601 35.5377 46.017 35.3715 46.017C35.1222 46.017 35.0641 45.9607 34.9497 45.8464Z" fill="white"/>
      <path d="M35.3718 46.2522C35.263 46.2532 35.1552 46.2324 35.0546 46.191C34.954 46.1496 34.8627 46.0886 34.786 46.0114C34.708 45.9352 34.6464 45.8438 34.6052 45.7429C34.5639 45.642 34.5438 45.5336 34.5461 45.4246V37.365C34.5461 37.1357 34.6251 36.9389 34.7832 36.7746C34.8589 36.6945 34.9504 36.631 35.0518 36.5881C35.1533 36.5452 35.2626 36.5238 35.3727 36.5252H40.4949C40.6003 36.5236 40.7048 36.5433 40.8023 36.5833C40.8998 36.6232 40.9881 36.6826 41.062 36.7577C41.137 36.8319 41.1962 36.9204 41.2363 37.018C41.2764 37.1156 41.2965 37.2202 41.2954 37.3257C41.2954 37.4302 41.2746 37.5336 41.2342 37.63C41.1938 37.7264 41.1346 37.8138 41.0601 37.8871C40.9856 37.9604 40.8973 38.0181 40.8003 38.0569C40.7032 38.0956 40.5994 38.1147 40.4949 38.113H36.2125V40.5546H40.0338C40.1394 40.5529 40.2441 40.5727 40.3418 40.6128C40.4394 40.653 40.5279 40.7125 40.6018 40.788C40.6772 40.8618 40.7368 40.9503 40.7769 41.0479C40.817 41.1456 40.8368 41.2504 40.8352 41.3559C40.8364 41.4612 40.816 41.5656 40.7752 41.6627C40.7344 41.7597 40.6741 41.8474 40.598 41.9202C40.5233 41.9927 40.435 42.0496 40.3382 42.0877C40.2413 42.1259 40.1379 42.1444 40.0338 42.1423H36.2125V45.4246C36.2137 45.5348 36.1922 45.644 36.1495 45.7456C36.1068 45.8472 36.0437 45.9389 35.9642 46.0151C35.806 46.169 35.5934 46.2539 35.3727 46.2513L35.3718 46.2522ZM35.3718 36.9939C35.3248 36.9925 35.278 37.0012 35.2347 37.0195C35.1914 37.0378 35.1524 37.0652 35.1206 37.0998C35.0861 37.1346 35.0589 37.1761 35.0407 37.2216C35.0225 37.2672 35.0137 37.316 35.0147 37.365V45.4246C35.0147 45.5296 35.0466 45.6111 35.1178 45.6796C35.2584 45.8202 35.489 45.8211 35.6389 45.6768C35.6736 45.6446 35.701 45.6054 35.7191 45.5617C35.7372 45.518 35.7457 45.471 35.7439 45.4237V41.6746H40.0338C40.078 41.676 40.1221 41.6684 40.1634 41.6523C40.2046 41.6362 40.2421 41.6119 40.2737 41.5809C40.3045 41.5523 40.3288 41.5174 40.3448 41.4786C40.3608 41.4398 40.3682 41.3979 40.3665 41.3559C40.3665 41.2603 40.3365 41.1854 40.27 41.1197C40.2034 41.0541 40.1294 41.0232 40.0338 41.0232H35.7439V37.6443H40.4959C40.5397 37.6456 40.5834 37.638 40.6243 37.6221C40.6652 37.6061 40.7025 37.5822 40.7339 37.5516C40.7647 37.523 40.789 37.4881 40.805 37.4493C40.821 37.4104 40.8284 37.3686 40.8267 37.3266C40.8285 37.2825 40.8208 37.2385 40.8041 37.1976C40.7875 37.1567 40.7623 37.1198 40.7302 37.0895C40.6997 37.0584 40.6632 37.0339 40.6229 37.0174C40.5826 37.001 40.5394 36.993 40.4959 36.9939H35.3718Z" fill="white"/>
      </g>
    </symbol>

  </defs>
</svg>
